# xmcd
# 
# Track frame offsets:
#     150
#     12650
#     25322
#     36489
#     49240
#     62093
#     73671
#     84451
#     95395
#     108016
#     121782
#     135968
#     149715
#     160646
#     170898
#     181676
#     192895
#     203331
#     218135
#     226885
#     238302
#     248782
#     259799
#     273895
#     283600
#     291487
#     300372
#     311083
#     324647
#     336936
# 
# Disc length: 4649
# 
# Revision: 1
# Processed by: cddbd v1.5.2PL0 Copyright (c) Steve Scherf et al.
# Submitted via: fre:ac v1.0.31
# 
DISCID=b812271e
DTITLE=Sun Records - Sun Records 65th Anniversary:  Born From The Blues
DYEAR=0
DGENRE=Blues
TTITLE0=That's When Your Heartaches Begin - Elvis Presley
TTITLE1=Rocket 88 - Jackie Brenston and His Delta Cats
TTITLE2=She's Dynamite - B.B. King
TTITLE3=Folsom Prison Blues - Johnny Cash
TTITLE4=Roll Over Beethoven - Carl Perkins
TTITLE5=I'm Gonna Forget About You - Ike Turner
TTITLE6=Mystery Train - Little Junior's Blue Flames
TTITLE7=Mystery Train - Elvis Presley
TTITLE8=Tiger Man (King Of The Jungle) - Rufus Thomas, Jr.
TTITLE9=Alone and Blue - Little Milton
TTITLE10=Decoration Day Blues - Howlin' Wolf
TTITLE11=Rats In My Kitchen - Sleepy John Estes
TTITLE12=What'd I Say - Jerry Lee Lewis
TTITLE13=Goin' On Down The Line - Earl Hooker
TTITLE14=C. C. Rider - Charlie Rich
TTITLE15=Harpin' On It - Coy "Hot Shot" Love
TTITLE16=Do Wa Diddi - Frank Ballard
TTITLE17=Signifying Monkey - Smokey Joe Baugh
TTITLE18=That's All Right - Elvis Presley
TTITLE19=Juiced - Billy "Red" Love
TTITLE20=Straighten Up Baby - James Cotton
TTITLE21=My Baby Left Me - Raymond Hill
TTITLE22=West Winds are Blowing - Walter Horton
TTITLE23=Love is a Gamble - Bonnie Turner
TTITLE24=That Chick's Too Young To Fry - The Prisonaires
TTITLE25=Crawl Back - Frank Frost
TTITLE26=Shim Sham Shimmy - Billy "The Kid" Emerson
TTITLE27=Drivin' Slow - Johnny London
TTITLE28=Reconsider Baby - Million Dollar Quartet
TTITLE29=Let's Get High - Roscoe Gordon
EXTD=
EXTT0=
EXTT1=
EXTT2=
EXTT3=
EXTT4=
EXTT5=
EXTT6=
EXTT7=
EXTT8=
EXTT9=
EXTT10=
EXTT11=
EXTT12=
EXTT13=
EXTT14=
EXTT15=
EXTT16=
EXTT17=
EXTT18=
EXTT19=
EXTT20=
EXTT21=
EXTT22=
EXTT23=
EXTT24=
EXTT25=
EXTT26=
EXTT27=
EXTT28=
EXTT29=
PLAYORDER=
